# xmcd CD database file
# Copyright (C) 1997 Ti Kan
# 
# Track frame offsets:
#     150
#     8625
#     21862
#     34720
#     52665
#     71917
#     87660
#     98415
#     109697
#     122210
#     135732
#     148530
#     163260
#     177897
#     195492
# 
# Disc length: 2675 seconds
# 
# Revision: 1
# Processed by: cddbd v1.4b41PL1 Copyright (c) Steve Scherf et al.
# Submitted via: DiscPlay 4.0.4
# 
DISCID=c50a710f
DTITLE=Joe Weed - Prairie Christmas
DYEAR=1900
DGENRE=
TTITLE0=Joy to the World
TTITLE1=It Came Upon a Midnight Clear
TTITLE2=Hark the Herald Angels Sing
TTITLE3=Greensleeves
TTITLE4=Oh Holy Night
TTITLE5=Wind through the Olive Trees/The First Noel
TTITLE6=Jingle Bells
TTITLE7=Oh Christmas Tree
TTITLE8=God Rest Ye Merry Gentlemen
TTITLE9=Cherry Tree Carol
TTITLE10=Oh Little Town of Bethlehem
TTITLE11=I Wonder as I Wander
TTITLE12=Silent Night
TTITLE13=Coventry Carol/We Three Kings
TTITLE14=Auld Lang Syne
EXTD=
EXTT0=
EXTT1=
EXTT2=
EXTT3=
EXTT4=
EXTT5=
EXTT6=
EXTT7=
EXTT8=
EXTT9=
EXTT10=
EXTT11=
EXTT12=
EXTT13=
EXTT14=
PLAYORDER=
